<svg xmlns="http://www.w3.org/2000/svg" viewBox="0 0 199.96 86.5"><defs><style>.cls-1{font-size:29px;font-family:RobotoMono-Regular, Roboto Mono;}.cls-2{fill:#0063b9;}.cls-3{fill:#004da2;}.cls-4{fill:#4400a2;}.cls-5{fill:#2d00a2;}</style></defs><g id="Layer_1" data-name="Layer 1"><text class="cls-1" transform="translate(0 32.05)">Cassandra <tspan x="0" y="34.8">Savaiko</tspan></text></g><g id="Layer_2" data-name="Layer 2"><path class="cls-2" d="M166.36,68c2.11-2.78-.68-8.58-4.35-11.7-4-3.41-10.83-5.1-14.54-2.46-3.21,2.27-2.35,6.52-5.55,7.71-2.5.93-4-1.3-6.4-.81-5.28,1.08-11.66,14.48-5.47,21.55,3.62,4.12,10.95,5.44,15.65,2.88,6.21-3.38,4.34-11.26,11.21-14.64C161.32,68.4,164.54,70.42,166.36,68Z"/><path class="cls-3" d="M186.26,72.9c1.28,4.47-4.6,11.89-9.85,11.57-4.45-.27-7.22-6-9.86-11.48-5-10.3-13.63-8.76-16.22-9.39-2.92-.72-5.93-15.55,1.9-21.12,5.51-3.91,14.47-1.87,18.57,2.86C176.21,51.6,185.28,69.46,186.26,72.9Z"/><path class="cls-4" d="M196,32.18c-.73,1.71-4.16,9.68-7.77,9.45s-5.69-4.91-7.77-9.38c-3.92-8.42-10.73-7.16-12.77-7.67C165.39,24,163,11.87,169.2,7.32c3.73-2.75,7.87,3.73,14.62,2.34C191.42,8.09,193-.66,196.15,0,200.49,1,202,18.17,196,32.18Z"/><path class="cls-5" d="M174.84,26.17c2.13-3.09,9.83-3.44,12.36-.14,2.28,3-4.17,8.16-2,11.85,1.56,2.73,5.66,1.48,7,4.12,1.51,3-2.27,7.73-4.44,10.44-4.4,5.49-8.81,11-14.2,9.85S164,53.7,165.63,49.73c1.46-3.49,6.62-2.51,9-7.2,1.06-2.09,1-4.22,1-7.36C175.47,29.44,173.64,27.9,174.84,26.17Z"/></g></svg>